# xmcd
#
# Track frame offsets:
#	150
#	18294
#	28278
#	39054
#	47747
#	70749
#	81397
#	92908
#
# Disc length: 1574
#
# Revision: 1
# Processed by: cddbd v1.5.1PL0 Copyright (c) Steve Scherf et al.
# Submitted via: CDex 1.51
# Normalized: r0:TDELIM( - )
#
DISCID=5e062408
DTITLE=Various Artist - Cause You Care
DYEAR=1900
DGENRE=Jazz
TTITLE0=Frank Sinatra - Night And Day
TTITLE1=Peggy Lee - Things Are Swingin
TTITLE2=Dean Martin - Who Was That Lady
TTITLE3=Nat King Cole - Almost Like Being In Love
TTITLE4=Louis Armstrong and Duke Ellington - Duke's Place
TTITLE5=Count Basie and Tony Bennett - Anything Goes
TTITLE6=Mel Torme' - Recipe For Romance
TTITLE7=Dianne Reeves - Lullaby Of Broadway
EXTD=
EXTT0=
EXTT1=
EXTT2=
EXTT3=
EXTT4=
EXTT5=
EXTT6=
EXTT7=
PLAYORDER=
